Coordinates
version=1
nRows=12
nColumns=42
inDegrees=yes

Units are S.I. units (second, meters, Newtons, ...)
If the header above contains a line with 'inDegrees', this indicates whether rotational values are in degrees (yes) or radians (no).

endheader
time	pelvis_tilt	pelvis_list	pelvis_rotation	pelvis_tx	pelvis_ty	pelvis_tz	hip_flexion_r	hip_adduction_r	hip_rotation_r	knee_angle_r	knee_adduction_r	knee_angle_r_beta	ankle_angle_r	subtalar_angle_r	mtp_angle_r	hip_flexion_l	hip_adduction_l	hip_rotation_l	knee_angle_l	knee_adduction_l	knee_angle_l_beta	ankle_angle_l	subtalar_angle_l	mtp_angle_l	lumbar_extension	lumbar_bending	lumbar_rotation	arm_flex_r	arm_add_r	arm_rot_r	elbow_flex_r	pro_sup_r	wrist_flex_r	wrist_dev_r	arm_flex_l	arm_add_l	arm_rot_l	elbow_flex_l	pro_sup_l	wrist_flex_l	wrist_dev_l
      0.98000000	     21.24792396	      6.20566733	      3.95153626	     -0.10039123	      0.89988203	     -0.29671104	     12.42416347	     -8.95584456	    -19.09794318	     36.89700594	     -3.95953531	      0.64397424	     14.00908872	     -5.32151966	     -7.91111378	    -18.78955662	      9.10473199	     -6.01595689	     25.72862188	     -0.04640701	      0.44904916	     26.67167667	      1.16653139	     -7.91111378	    -43.72956676	     -4.99318644	     -4.85052050	     -0.32111732	     -5.11244261	    -20.38849434	     30.09929943	     90.00000001	      0.00000000	      0.00000000	     16.35182500	    -10.53974563	    -20.48305026	     43.00280745	     90.00000001	      0.00000000	      0.00000000
      0.99000000	     21.47503316	      6.13573072	      4.21399102	     -0.09281935	      0.89961739	     -0.29682029	     12.25090158	     -8.91259692	    -21.22216183	     34.62740769	     -4.32502932	      0.60436228	     15.50027161	      0.80586050	     -7.87698507	    -19.84049342	      8.94023028	     -5.39379118	     25.29284909	     -0.08874874	      0.44144349	     27.20621756	      1.24820121	     -7.87698507	    -44.00797654	     -4.74210702	     -4.85491331	     -0.40886839	     -4.68792309	    -23.01595854	     29.56457245	     90.00000001	      0.00000000	      0.00000000	     16.80342680	    -10.63054522	    -19.75742862	     42.61782991	     90.00000001	      0.00000000	      0.00000000
      1.00000000	     21.34722489	      6.18102280	      4.32284593	     -0.08546303	      0.89879772	     -0.29675715	     12.61276060	     -9.01202920	    -21.97535371	     32.87020447	     -3.99870597	      0.57369329	     15.76125604	      2.95700363	     -7.84391633	    -20.34660757	      8.90601254	     -5.24253943	     25.11530663	     -0.08909927	      0.43834479	     27.46157058	      1.34248658	     -7.84391633	    -43.96665274	     -4.73743079	     -4.90379787	     -0.54481503	     -4.55179483	    -24.44869365	     29.37218186	     90.00000001	      0.00000000	      0.00000000	     17.06368837	    -10.72160751	    -19.59011607	     42.80857366	     90.00000001	      0.00000000	      0.00000000
      1.01000000	     21.15803316	      6.21936039	      4.44672238	     -0.07806828	      0.89792312	     -0.29667330	     12.94839967	     -9.00643609	    -22.09624249	     31.15559990	     -3.50930461	      0.54376780	     15.61239361	      3.68342194	     -7.83795717	    -20.76199708	      8.89938166	     -5.13346213	     24.98240944	     -0.19994791	      0.43602530	     27.70342549	      1.45275919	     -7.83795717	    -43.84267397	     -4.74263520	     -4.97998721	     -0.88787458	     -4.57075908	    -24.57571476	     29.30779960	     90.00000001	      0.00000000	      0.00000000	     17.31439208	    -10.76112822	    -19.53596899	     42.94147504	     90.00000001	      0.00000000	      0.00000000
      1.02000000	     21.11019901	      6.27401750	      4.57170011	     -0.07044564	      0.89717956	     -0.29643369	     13.20807917	     -9.15720268	    -23.41980827	     29.77161505	     -3.48080470	      0.51961271	     16.16891658	      7.12923262	     -7.81689721	    -21.43192950	      8.78577484	     -4.93155808	     24.69761755	     -0.08469938	      0.43105474	     27.91802435	      1.65661708	     -7.81689721	    -43.88547185	     -4.73719834	     -5.01712573	     -1.11391435	     -4.45169997	    -25.44490840	     29.10208073	     90.00000001	      0.00000000	      0.00000000	     17.57395983	    -10.85636441	    -19.48958889	     42.87923756	     90.00000001	      0.00000000	      0.00000000
      1.03000000	     20.95952651	      6.32481023	      4.67915795	     -0.06284863	      0.89634976	     -0.29619206	     13.45236827	     -9.16563547	    -23.67036966	     28.39187413	     -3.13732979	      0.49553168	     16.11372550	      8.00544351	     -7.81122553	    -21.93460095	      8.72412890	     -4.83189607	     24.50895334	     -0.07674026	      0.42776193	     28.12908722	      1.79410630	     -7.81122553	    -43.81044068	     -4.75023840	     -5.05085202	     -1.43573867	     -4.44711262	    -25.64406572	     29.00062371	     90.00000001	      0.00000000	      0.00000000	     17.74768071	    -10.88367625	    -19.46435898	     42.98091324	     90.00000001	      0.00000000	      0.00000000
      1.04000000	     20.87585035	      6.42873085	      4.83598317	     -0.05495254	      0.89552919	     -0.29591987	     13.73046663	     -9.36994032	    -25.12081625	     27.49352960	     -3.29881954	      0.47985261	     16.66158103	     11.24997733	     -7.79325861	    -22.56167037	      8.66942684	     -4.73964138	     24.27401725	     -0.09711735	      0.42366152	     28.26652660	      2.12924364	     -7.79325861	    -43.77443226	     -4.78400778	     -5.13663479	     -1.69650088	     -4.34407215	    -26.55945367	     28.83371247	     90.00000001	      0.00000000	      0.00000000	     17.91860848	    -10.92059081	    -19.47170491	     43.00025044	     90.00000001	      0.00000000	      0.00000000
      1.05000000	     20.61786687	      6.57441368	      4.92650290	     -0.04709670	      0.89449863	     -0.29555719	     14.17634667	     -9.54106181	    -25.32021671	     26.87691782	     -3.07740547	      0.46909071	     16.65763876	     11.30974110	     -7.79152453	    -22.89068259	      8.66203218	     -4.86831118	     24.24053945	     -0.09321743	      0.42307723	     28.30530977	      2.16144919	     -7.79152453	    -43.57410913	     -4.92186432	     -5.23282407	     -2.08511642	     -4.34980775	    -26.61490158	     28.75983407	     90.00000001	      0.00000000	      0.00000000	     17.97087149	    -11.02660779	    -19.47792868	     43.07078559	     90.00000001	      0.00000000	      0.00000000
      1.06000000	     20.61613113	      6.54453855	      5.13240486	     -0.03902224	      0.89400444	     -0.29513550	     14.05403950	     -9.35805327	    -25.81930316	     25.93126026	     -3.10886943	      0.45258587	     16.69307162	     12.42860679	     -7.78783036	    -23.67865537	      8.42554289	     -4.49272491	     23.86911983	     -0.04204106	      0.41659473	     28.49507964	      2.50746965	     -7.78783036	    -43.61062079	     -4.79858045	     -5.26083122	     -2.30263290	     -4.31147058	    -26.93636955	     28.58216403	     90.00000001	      0.00000000	      0.00000000	     18.09266291	    -11.00317776	    -19.50437034	     43.08186505	     90.00000001	      0.00000000	      0.00000000
      1.07000000	     20.52196518	      6.63836878	      5.30958280	     -0.03075397	      0.89324969	     -0.29476916	     14.23255391	     -9.53536654	    -27.03029815	     25.75464285	     -3.33955073	      0.44950332	     17.08877549	     14.36679442	     -7.77692167	    -24.28227848	      8.31425544	     -4.48872218	     23.69002905	     -0.09662307	      0.41346901	     28.57720013	      2.98543408	     -7.77692167	    -43.55309958	     -4.80050915	     -5.38798990	     -2.57119912	     -4.20074331	    -27.71492710	     28.47129141	     90.00000001	      0.00000000	      0.00000000	     18.11485958	    -11.00835682	    -19.58845135	     43.12956052	     90.00000001	      0.00000000	      0.00000000
      1.08000000	     20.38825211	      6.71776831	      5.47339753	     -0.02238716	      0.89251860	     -0.29425329	     14.36918928	     -9.55375124	    -27.53973415	     25.69249802	     -3.52872453	      0.44841868	     17.24071392	     14.55790727	     -7.77286771	    -24.80637874	      8.17616525	     -4.44810671	     23.59202223	     -0.11896832	      0.41175847	     28.56937657	      3.19897931	     -7.77286771	    -43.42903279	     -4.82905843	     -5.46306864	     -2.89347584	     -4.16560208	    -27.98856776	     28.33954917	     90.00000001	      0.00000000	      0.00000000	     18.08713880	    -11.02792323	    -19.62841554	     43.14568090	     90.00000001	      0.00000000	      0.00000000
      1.09000000	     20.17413076	      6.80067115	      5.61168599	     -0.01397338	      0.89174009	     -0.29367921	     14.49080935	     -9.53765240	    -27.51917155	     25.72480129	     -3.54961633	      0.44898248	     17.22725784	     14.54277796	     -7.77214299	    -25.15082441	      8.05208686	     -4.46892931	     23.68659273	     -0.15474953	      0.41340903	     28.53313010	      3.22907464	     -7.77214299	    -43.22041583	     -4.87909450	     -5.56725958	     -3.14014978	     -4.15928216	    -28.02394453	     28.29111765	     90.00000001	      0.00000000	      0.00000000	     18.04506860	    -11.03836047	    -19.63143739	     43.15736461	     90.00000001	      0.00000000	      0.00000000
